<?xml version="1.0" encoding="UTF-8"?><svg id="_레이어_2" xmlns="http://www.w3.org/2000/svg" viewBox="0 0 137.19 85.08"><defs><style>.cls-1{fill:none;}.cls-2{fill:#1c1b1a;}</style></defs><g id="_레이어_1-2"><path class="cls-2" d="M48.03,63.52l-2.6-6.22h-17.53l-2.6,6.22h-9.68l19.57-42.5h3.11l19.57,42.5h-9.84ZM31.06,49.76h11.21l-5.61-13.35-5.61,13.35Z"/><path class="cls-2" d="M57.66,49.71c0-8.36,6.83-14.58,15.14-14.58s15.09,6.22,15.09,14.58-6.88,14.58-15.09,14.58-15.14-6.22-15.14-14.58ZM79.07,49.71c0-3.98-2.75-6.88-6.27-6.88s-6.32,2.9-6.32,6.88,2.7,6.93,6.32,6.93,6.27-2.96,6.27-6.93Z"/><path class="cls-2" d="M101.54,63.52V29.48h-11.21v-7.95h31.24v7.95h-11.21v34.04h-8.82Z"/><rect class="cls-1" width="137.19" height="85.08"/></g></svg>